<svg xmlns="http://www.w3.org/2000/svg" xmlns:xlink="http://www.w3.org/1999/xlink" id="body_2" preserveAspectRatio="xMinYMin meet" viewBox="0 0 816 1056"><defs><clipPath id="1"><path clip-rule="evenodd" d="M0 792L0 0L0 0L612 0L612 0L612 792L612 792L0 792z" /></clipPath><clipPath id="2"><path clip-rule="evenodd" d="M16.6 773.4L595.4 773.4L595.4 773.4L595.4 18.60004L595.4 18.60004L16.6 18.60004z" /></clipPath></defs><g transform="matrix(1.333333 0 0 1.333333 0 0)"><g clip-path="url(#1)"><g clip-path="url(#2)"><path transform="matrix(1 0 0 -1 0 792)" d="M37.72 705L97.24001 705L97.24001 705.48L37.72 705.48z" stroke="none" fill="#000000" fill-rule="nonzero" /><path transform="matrix(1 0 0 -1 0 792)" d="M37.72 594.84L97.24001 594.84L97.24001 595.32L37.72 595.32z" stroke="none" fill="#000000" fill-rule="nonzero" /><path transform="matrix(1 0 0 -1 0 792)" d="M37.72 484.92L98.2 484.92L98.2 485.4L37.72 485.4z" stroke="none" fill="#000000" fill-rule="nonzero" /><path transform="matrix(1 0 0 -1 0 792)" d="M45.85526 754.012L44.96454 754.2198L44.96454 754.2198L44.17278 754.7394L44.17278 754.7394L43.67794 755.5188L43.67794 755.5188L43.48 756.506L43.48 756.506L43.67794 757.4932L43.67794 757.4932L44.17278 758.2726L44.17278 758.2726L44.96454 758.7922L44.96454 758.7922L45.85526 759L45.85526 759L46.79546 758.7922L46.79546 758.7922L47.53773 758.2726L47.53773 758.2726L48.08206 757.4932L48.08206 757.4932L48.23052 756.506L48.23052 756.506L48.08206 755.5188L48.08206 755.5188L47.53773 754.7394L47.53773 754.7394L46.79546 754.2198L46.79546 754.2198L45.85526 754.012z" stroke="none" fill="#000000" fill-rule="evenodd" /><path transform="matrix(1 0 0 -1 0 792)" d="M45.85526 572.332L44.96454 572.5398L44.96454 572.5398L44.17278 573.0594L44.17278 573.0594L43.67794 573.8388L43.67794 573.8388L43.48 574.826L43.48 574.826L43.67794 575.8132L43.67794 575.8132L44.17278 576.5926L44.17278 576.5926L44.96454 577.1122L44.96454 577.1122L45.85526 577.32L45.85526 577.32L46.79546 577.1122L46.79546 577.1122L47.53773 576.5926L47.53773 576.5926L48.08206 575.8132L48.08206 575.8132L48.23052 574.826L48.23052 574.826L48.08206 573.8388L48.08206 573.8388L47.53773 573.0594L47.53773 573.0594L46.79546 572.5398L46.79546 572.5398L45.85526 572.332z" stroke="none" fill="#000000" fill-rule="evenodd" /><path transform="matrix(1 0 0 -1 0 792)" d="M45.85526 546.4095L44.96454 546.6075L44.96454 546.6075L44.17278 547.1023L44.17278 547.1023L43.67794 547.8446L43.67794 547.8446L43.48 548.7848L43.48 548.7848L43.67794 549.725L43.67794 549.725L44.17278 550.4672L44.17278 550.4672L44.96454 550.9621L44.96454 550.9621L45.85526 551.16L45.85526 551.16L46.79546 550.9621L46.79546 550.9621L47.53773 550.4672L47.53773 550.4672L48.08206 549.725L48.08206 549.725L48.23052 548.7848L48.23052 548.7848L48.08206 547.8446L48.08206 547.8446L47.53773 547.1023L47.53773 547.1023L46.79546 546.6075L46.79546 546.6075L45.85526 546.4095z" stroke="none" fill="#000000" fill-rule="evenodd" /><path transform="matrix(1 0 0 -1 0 792)" d="M45.85526 533.4495L44.96454 533.6475L44.96454 533.6475L44.17278 534.1423L44.17278 534.1423L43.67794 534.8846L43.67794 534.8846L43.48 535.8248L43.48 535.8248L43.67794 536.765L43.67794 536.765L44.17278 537.5072L44.17278 537.5072L44.96454 538.0021L44.96454 538.0021L45.85526 538.2L45.85526 538.2L46.79546 538.0021L46.79546 538.0021L47.53773 537.5072L47.53773 537.5072L48.08206 536.765L48.08206 536.765L48.23052 535.8248L48.23052 535.8248L48.08206 534.8846L48.08206 534.8846L47.53773 534.1423L47.53773 534.1423L46.79546 533.6475L46.79546 533.6475L45.85526 533.4495z" stroke="none" fill="#000000" fill-rule="evenodd" /><path transform="matrix(1 0 0 -1 0 792)" d="M45.85526 449.4495L44.96454 449.6475L44.96454 449.6475L44.17278 450.1423L44.17278 450.1423L43.67794 450.8846L43.67794 450.8846L43.48 451.8248L43.48 451.8248L43.67794 452.765L43.67794 452.765L44.17278 453.5072L44.17278 453.5072L44.96454 454.0021L44.96454 454.0021L45.85526 454.2L45.85526 454.2L46.79546 454.0021L46.79546 454.0021L47.53773 453.5072L47.53773 453.5072L48.08206 452.765L48.08206 452.765L48.23052 451.8248L48.23052 451.8248L48.08206 450.8846L48.08206 450.8846L47.53773 450.1423L47.53773 450.1423L46.79546 449.6475L46.79546 449.6475L45.85526 449.4495z" stroke="none" fill="#000000" fill-rule="evenodd" /><path transform="matrix(1 0 0 -1 0 792)" d="M45.85526 423.292L44.96454 423.4998L44.96454 423.4998L44.17278 424.0194L44.17278 424.0194L43.67794 424.7988L43.67794 424.7988L43.48 425.786L43.48 425.786L43.67794 426.7732L43.67794 426.7732L44.17278 427.5526L44.17278 427.5526L44.96454 428.0722L44.96454 428.0722L45.85526 428.28L45.85526 428.28L46.79546 428.0722L46.79546 428.0722L47.53773 427.5526L47.53773 427.5526L48.08206 426.7732L48.08206 426.7732L48.23052 425.786L48.23052 425.786L48.08206 424.7988L48.08206 424.7988L47.53773 424.0194L47.53773 424.0194L46.79546 423.4998L46.79546 423.4998L45.85526 423.292z" stroke="none" fill="#000000" fill-rule="evenodd" /><path transform="matrix(1 0 0 -1 0 792)" d="M45.85526 273.0495L44.96454 273.198L44.96454 273.198L44.17278 273.7423L44.17278 273.7423L43.67794 274.4846L43.67794 274.4846L43.48 275.4248L43.48 275.4248L43.67794 276.3155L43.67794 276.3155L44.17278 277.0578L44.17278 277.0578L44.96454 277.6021L44.96454 277.6021L45.85526 277.8L45.85526 277.8L46.79546 277.6021L46.79546 277.6021L47.53773 277.0578L47.53773 277.0578L48.08206 276.3155L48.08206 276.3155L48.23052 275.4248L48.23052 275.4248L48.08206 274.4846L48.08206 274.4846L47.53773 273.7423L47.53773 273.7423L46.79546 273.198L46.79546 273.198L45.85526 273.0495z" stroke="none" fill="#000000" fill-rule="evenodd" /><path transform="matrix(1 0 0 -1 0 792)" d="M45.85526 261.7695L44.96454 261.9675L44.96454 261.9675L44.17278 262.4623L44.17278 262.4623L43.67794 263.2046L43.67794 263.2046L43.48 264.1448L43.48 264.1448L43.67794 265.085L43.67794 265.085L44.17278 265.8273L44.17278 265.8273L44.96454 266.3221L44.96454 266.3221L45.85526 266.52L45.85526 266.52L46.79546 266.3221L46.79546 266.3221L47.53773 265.8273L47.53773 265.8273L48.08206 265.085L48.08206 265.085L48.23052 264.1448L48.23052 264.1448L48.08206 263.2046L48.08206 263.2046L47.53773 262.4623L47.53773 262.4623L46.79546 261.9675L46.79546 261.9675L45.85526 261.7695z" stroke="none" fill="#000000" fill-rule="evenodd" /><path transform="matrix(1 0 0 -1 0 792)" d="M45.85526 235.8495L44.96454 236.0475L44.96454 236.0475L44.17278 236.5423L44.17278 236.5423L43.67794 237.2846L43.67794 237.2846L43.48 238.2248L43.48 238.2248L43.67794 239.165L43.67794 239.165L44.17278 239.9073L44.17278 239.9073L44.96454 240.4021L44.96454 240.4021L45.85526 240.6L45.85526 240.6L46.79546 240.4021L46.79546 240.4021L47.53773 239.9073L47.53773 239.9073L48.08206 239.165L48.08206 239.165L48.23052 238.2248L48.23052 238.2248L48.08206 237.2846L48.08206 237.2846L47.53773 236.5423L47.53773 236.5423L46.79546 236.0475L46.79546 236.0475L45.85526 235.8495z" stroke="none" fill="#000000" fill-rule="evenodd" /><path transform="matrix(1 0 0 -1 0 792)" d="M45.85526 436.4895L44.96454 436.6875L44.96454 436.6875L44.17278 437.1823L44.17278 437.1823L43.67794 437.9246L43.67794 437.9246L43.48 438.8648L43.48 438.8648L43.67794 439.805L43.67794 439.805L44.17278 440.5472L44.17278 440.5472L44.96454 441.0421L44.96454 441.0421L45.85526 441.24L45.85526 441.24L46.79546 441.0421L46.79546 441.0421L47.53773 440.5472L47.53773 440.5472L48.08206 439.805L48.08206 439.805L48.23052 438.8648L48.23052 438.8648L48.08206 437.9246L48.08206 437.9246L47.53773 437.1823L47.53773 437.1823L46.79546 436.6875L46.79546 436.6875L45.85526 436.4895z" stroke="none" fill="#000000" fill-rule="evenodd" /><path transform="matrix(1 0 0 -1 0 792)" d="M45.85526 345.7695L44.96454 345.9675L44.96454 345.9675L44.17278 346.4623L44.17278 346.4623L43.67794 347.2046L43.67794 347.2046L43.48 348.1448L43.48 348.1448L43.67794 349.085L43.67794 349.085L44.17278 349.8273L44.17278 349.8273L44.96454 350.3221L44.96454 350.3221L45.85526 350.52L45.85526 350.52L46.79546 350.3221L46.79546 350.3221L47.53773 349.8273L47.53773 349.8273L48.08206 349.085L48.08206 349.085L48.23052 348.1448L48.23052 348.1448L48.08206 347.2046L48.08206 347.2046L47.53773 346.4623L47.53773 346.4623L46.79546 345.9675L46.79546 345.9675L45.85526 345.7695z" stroke="none" fill="#000000" fill-rule="evenodd" /><path transform="matrix(1 0 0 -1 0 792)" d="M45.85526 332.8095L44.96454 333.0075L44.96454 333.0075L44.17278 333.5023L44.17278 333.5023L43.67794 334.2446L43.67794 334.2446L43.48 335.1848L43.48 335.1848L43.67794 336.125L43.67794 336.125L44.17278 336.8673L44.17278 336.8673L44.96454 337.3621L44.96454 337.3621L45.85526 337.56L45.85526 337.56L46.79546 337.3621L46.79546 337.3621L47.53773 336.8673L47.53773 336.8673L48.08206 336.125L48.08206 336.125L48.23052 335.1848L48.23052 335.1848L48.08206 334.2446L48.08206 334.2446L47.53773 333.5023L47.53773 333.5023L46.79546 333.0075L46.79546 333.0075L45.85526 332.8095z" stroke="none" fill="#000000" fill-rule="evenodd" /><path transform="matrix(1 0 0 -1 0 792)" d="M45.85526 656.5695L44.96454 656.7674L44.96454 656.7674L44.17278 657.2623L44.17278 657.2623L43.67794 658.0046L43.67794 658.0046L43.48 658.9448L43.48 658.9448L43.67794 659.885L43.67794 659.885L44.17278 660.6272L44.17278 660.6272L44.96454 661.1221L44.96454 661.1221L45.85526 661.32L45.85526 661.32L46.79546 661.1221L46.79546 661.1221L47.53773 660.6272L47.53773 660.6272L48.08206 659.885L48.08206 659.885L48.23052 658.9448L48.23052 658.9448L48.08206 658.0046L48.08206 658.0046L47.53773 657.2623L47.53773 657.2623L46.79546 656.7674L46.79546 656.7674L45.85526 656.5695z" stroke="none" fill="#000000" fill-rule="evenodd" /><path transform="matrix(1 0 0 -1 0 792)" d="M45.85526 643.6095L44.96454 643.8075L44.96454 643.8075L44.17278 644.3023L44.17278 644.3023L43.67794 645.0446L43.67794 645.0446L43.48 645.9848L43.48 645.9848L43.67794 646.925L43.67794 646.925L44.17278 647.6672L44.17278 647.6672L44.96454 648.1621L44.96454 648.1621L45.85526 648.36L45.85526 648.36L46.79546 648.1621L46.79546 648.1621L47.53773 647.6672L47.53773 647.6672L48.08206 646.925L48.08206 646.925L48.23052 645.9848L48.23052 645.9848L48.08206 645.0446L48.08206 645.0446L47.53773 644.3023L47.53773 644.3023L46.79546 643.8075L46.79546 643.8075L45.85526 643.6095z" stroke="none" fill="#000000" fill-rule="evenodd" /><path transform="matrix(1 0 0 -1 0 792)" d="M45.85526 156.6495L44.96454 156.798L44.96454 156.798L44.17278 157.3423L44.17278 157.3423L43.67794 158.0846L43.67794 158.0846L43.48 159.0248L43.48 159.0248L43.67794 159.9155L43.67794 159.9155L44.17278 160.6578L44.17278 160.6578L44.96454 161.2021L44.96454 161.2021L45.85526 161.4L45.85526 161.4L46.79546 161.2021L46.79546 161.2021L47.53773 160.6578L47.53773 160.6578L48.08206 159.9155L48.08206 159.9155L48.23052 159.0248L48.23052 159.0248L48.08206 158.0846L48.08206 158.0846L47.53773 157.3423L47.53773 157.3423L46.79546 156.798L46.79546 156.798L45.85526 156.6495z" stroke="none" fill="#000000" fill-rule="evenodd" /><path transform="matrix(1 0 0 -1 0 792)" d="M45.85526 125.2095L44.96454 125.358L44.96454 125.358L44.17278 125.9023L44.17278 125.9023L43.67794 126.6446L43.67794 126.6446L43.48 127.5848L43.48 127.5848L43.67794 128.4755L43.67794 128.4755L44.17278 129.2178L44.17278 129.2178L44.96454 129.7621L44.96454 129.7621L45.85526 129.96L45.85526 129.96L46.79546 129.7621L46.79546 129.7621L47.53773 129.2178L47.53773 129.2178L48.08206 128.4755L48.08206 128.4755L48.23052 127.5848L48.23052 127.5848L48.08206 126.6446L48.08206 126.6446L47.53773 125.9023L47.53773 125.9023L46.79546 125.358L46.79546 125.358L45.85526 125.2095z" stroke="none" fill="#000000" fill-rule="evenodd" /><path transform="matrix(1 0 0 -1 0 792)" d="M13.96 49.08004L14.68 49.08004L14.68 62.28004L13.96 62.28004z" stroke="none" fill="#000000" fill-rule="nonzero" /></g></g></g></svg>