<svg xmlns="http://www.w3.org/2000/svg" xmlns:xlink="http://www.w3.org/1999/xlink" id="body_1" preserveAspectRatio="xMinYMin meet" viewBox="0 0 816 1056"><defs><clipPath id="1"><path clip-rule="evenodd" d="M0 792L0 0L0 0L612 0L612 0L612 792L612 792L0 792z" /></clipPath><clipPath id="2"><path clip-rule="evenodd" d="M16.6 773.4L595.4 773.4L595.4 773.4L595.4 18.60004L595.4 18.60004L16.6 18.60004z" /></clipPath></defs><g transform="matrix(1.333333 0 0 1.333333 0 0)"><g clip-path="url(#1)"><g clip-path="url(#2)"><path transform="matrix(1 0 0 -1 0 792)" d="M45.85526 576.6495L44.96454 576.8475L44.96454 576.8475L44.17278 577.3423L44.17278 577.3423L43.67794 578.0846L43.67794 578.0846L43.48 579.0248L43.48 579.0248L43.67794 579.965L43.67794 579.965L44.17278 580.7072L44.17278 580.7072L44.96454 581.2021L44.96454 581.2021L45.85526 581.4L45.85526 581.4L46.79546 581.2021L46.79546 581.2021L47.53773 580.7072L47.53773 580.7072L48.08206 579.965L48.08206 579.965L48.23052 579.0248L48.23052 579.0248L48.08206 578.0846L48.08206 578.0846L47.53773 577.3423L47.53773 577.3423L46.79546 576.8475L46.79546 576.8475L45.85526 576.6495z" stroke="none" fill="#000000" fill-rule="evenodd" /><path transform="matrix(1 0 0 -1 0 792)" d="M45.85526 562.9695L44.96454 563.1675L44.96454 563.1675L44.17278 563.6623L44.17278 563.6623L43.67794 564.4046L43.67794 564.4046L43.48 565.3448L43.48 565.3448L43.67794 566.285L43.67794 566.285L44.17278 567.0272L44.17278 567.0272L44.96454 567.5221L44.96454 567.5221L45.85526 567.72L45.85526 567.72L46.79546 567.5221L46.79546 567.5221L47.53773 567.0272L47.53773 567.0272L48.08206 566.285L48.08206 566.285L48.23052 565.3448L48.23052 565.3448L48.08206 564.4046L48.08206 564.4046L47.53773 563.6623L47.53773 563.6623L46.79546 563.1675L46.79546 563.1675L45.85526 562.9695z" stroke="none" fill="#000000" fill-rule="evenodd" /><path transform="matrix(1 0 0 -1 0 792)" d="M345.64 699.72L440.68 699.72L440.68 700.2L345.64 700.2z" stroke="none" fill="#0000FE" fill-rule="nonzero" /><path transform="matrix(1 0 0 -1 0 792)" d="M37.72 152.52L97.24001 152.52L97.24001 153L37.72 153z" stroke="none" fill="#000000" fill-rule="nonzero" /><path transform="matrix(1 0 0 -1 0 792)" d="M37.72 81.00004L97.24001 81.00004L97.24001 81.48004L37.72 81.48004z" stroke="none" fill="#000000" fill-rule="nonzero" /><path transform="matrix(1 0 0 -1 0 792)" d="M583.24 733.8L583.2401 733.7999" stroke="#000000" stroke-width="1.44" fill="none" /><path transform="matrix(1 0 0 -1 0 792)" d="M583.36 730.32L583.36 730.3199" stroke="#000000" stroke-width="2.64" fill="none" /><path transform="matrix(1 0 0 -1 0 792)" d="M45.85526 45.52953L44.96454 45.72746L44.96454 45.72746L44.17278 46.22231L44.17278 46.22231L43.67794 46.96458L43.67794 46.96458L43.48 47.90478L43.48 47.90478L43.67794 48.84499L43.67794 48.84499L44.17278 49.58726L44.17278 49.58726L44.96454 50.0821L44.96454 50.0821L45.85526 50.28004L45.85526 50.28004L46.79546 50.0821L46.79546 50.0821L47.53773 49.58726L47.53773 49.58726L48.08206 48.84499L48.08206 48.84499L48.23052 47.90478L48.23052 47.90478L48.08206 46.96458L48.08206 46.96458L47.53773 46.22231L47.53773 46.22231L46.79546 45.72746L46.79546 45.72746L45.85526 45.52953z" stroke="none" fill="#000000" fill-rule="evenodd" /></g></g></g></svg>